<svg id="Layer_1" data-name="Layer 1" xmlns="http://www.w3.org/2000/svg" viewBox="0 0 171.25 122.05"><defs><style>.cls-1{fill:#ededfd;}</style></defs><title>rationale-logo-white</title><path class="cls-1" d="M85.63,168.39V125.81H96.19v5.1a13.77,13.77,0,0,1,2.9-3.37,12.15,12.15,0,0,1,3.11-1.86,11.87,11.87,0,0,1,3.25-.83,33.64,33.64,0,0,1,3.37-.17h1.47v11.51a19.1,19.1,0,0,0-3.11-.26q-10.31,0-10.3,10.31v22.15Z" transform="translate(-85.63 -110.23)"/><path class="cls-1" d="M140.07,168.39a17.21,17.21,0,0,1-.69-3.8,14,14,0,0,1-5.28,3.59,20.13,20.13,0,0,1-7.62,1.34q-7.35,0-10.77-3.25a11.06,11.06,0,0,1-3.42-8.44,15.47,15.47,0,0,1,1.47-7.31,10.82,10.82,0,0,1,4.07-4.28,19.5,19.5,0,0,1,6.19-2.3q3.58-.74,7.83-1.34c2.83-.4,4.73-.94,5.71-1.6a4,4,0,0,0-.47-6.49,10.15,10.15,0,0,0-5.24-1.17c-2.6,0-4.46.57-5.58,1.73a8,8,0,0,0-2.12,4.59H113.67a19.42,19.42,0,0,1,1.08-6.06,11.53,11.53,0,0,1,3.21-4.76,15.07,15.07,0,0,1,5.75-3.08,30.07,30.07,0,0,1,8.66-1.08,28.21,28.21,0,0,1,8.53,1.13,13.76,13.76,0,0,1,5.62,3.24,12.32,12.32,0,0,1,3.07,5.28,24.58,24.58,0,0,1,1,7.14v26.92Zm-.78-20.86a6,6,0,0,1-2.51,1.39A46.32,46.32,0,0,1,132,150q-4.85,1-6.66,2.43a5.14,5.14,0,0,0-1.82,4.24q0,4.75,5.45,4.76a10.9,10.9,0,0,0,4-.74,9.9,9.9,0,0,0,3.2-2,9.57,9.57,0,0,0,2.16-2.94,8.08,8.08,0,0,0,.83-3.59Z" transform="translate(-85.63 -110.23)"/><path class="cls-1" d="M180.93,140.35H191.4v12.12a20.92,20.92,0,0,1-1,6.45,15.26,15.26,0,0,1-3.12,5.45,15,15,0,0,1-5.37,3.77,19.74,19.74,0,0,1-7.75,1.38,20.56,20.56,0,0,1-8-1.38,15.14,15.14,0,0,1-5.41-3.73,14.13,14.13,0,0,1-3.07-5.45,22.23,22.23,0,0,1-.95-6.58V114.29h11.08v11.52H191.4v8H167.86v17.49a11,11,0,0,0,1.51,6.27q1.51,2.21,5,2.21a5.78,5.78,0,0,0,5-2.17,10.22,10.22,0,0,0,1.6-6.14Z" transform="translate(-85.63 -110.23)"/><path class="cls-1" d="M198.15,120.7V110.23h11.26V120.7Zm0,47.69V125.81h11.26v42.58Z" transform="translate(-85.63 -110.23)"/><path class="cls-1" d="M235.24,169.52a24.72,24.72,0,0,1-9.27-1.64,19,19,0,0,1-11.16-11.69,27.08,27.08,0,0,1-1.47-9.09,26.57,26.57,0,0,1,1.51-9.17,19.23,19.23,0,0,1,11.25-11.65,24.74,24.74,0,0,1,9.14-1.6,24.14,24.14,0,0,1,9,1.6,19,19,0,0,1,11.12,11.56,26.89,26.89,0,0,1,1.52,9.26,26.49,26.49,0,0,1-1.52,9.22,20.06,20.06,0,0,1-4.33,7.05,19,19,0,0,1-6.83,4.55A24,24,0,0,1,235.24,169.52Zm0-9.44q10.29,0,10.3-13t-10.3-12.9q-10.31,0-10.3,12.9T235.24,160.08Z" transform="translate(-85.63 -110.23)"/><path class="cls-1" d="M139.81,231.15V205.36q0-4.94-1.64-6.67T132.54,197q-8.75,0-8.74,9.78v24.41H112.55V188.56h10.73v6.24a13.68,13.68,0,0,1,5.28-5.5,17.1,17.1,0,0,1,8.48-1.86,16.83,16.83,0,0,1,5.63.91,11.87,11.87,0,0,1,4.46,2.72,13.14,13.14,0,0,1,2.94,4.46,16,16,0,0,1,1.08,6.1v29.52Z" transform="translate(-85.63 -110.23)"/><path class="cls-1" d="M182.74,231.15a17.79,17.79,0,0,1-.69-3.81,14,14,0,0,1-5.28,3.6,20.11,20.11,0,0,1-7.61,1.34q-7.36,0-10.78-3.25a11.11,11.11,0,0,1-3.42-8.44,15.42,15.42,0,0,1,1.47-7.31A11,11,0,0,1,160.5,209a19.5,19.5,0,0,1,6.19-2.29q3.59-.73,7.83-1.34t5.71-1.6a4,4,0,0,0-.47-6.5,10.15,10.15,0,0,0-5.24-1.17q-3.9,0-5.58,1.74a8.06,8.06,0,0,0-2.12,4.58H156.34a19.24,19.24,0,0,1,1.09-6.06,11.64,11.64,0,0,1,3.2-4.76,15,15,0,0,1,5.76-3.07,30,30,0,0,1,8.65-1.08,28.5,28.5,0,0,1,8.53,1.12,13.77,13.77,0,0,1,5.62,3.25,12.38,12.38,0,0,1,3.08,5.28,24.93,24.93,0,0,1,.95,7.14v26.92ZM182,210.29a6.16,6.16,0,0,1-2.51,1.39,47.3,47.3,0,0,1-4.77,1.12c-3.23.64-5.45,1.44-6.66,2.42a5.17,5.17,0,0,0-1.82,4.25q0,4.75,5.46,4.76a10.84,10.84,0,0,0,4-.74,9.9,9.9,0,0,0,3.2-2,10,10,0,0,0,2.17-2.94,8.21,8.21,0,0,0,.82-3.59Z" transform="translate(-85.63 -110.23)"/><path class="cls-1" d="M198.15,231.15V174.63h11.26v56.52Z" transform="translate(-85.63 -110.23)"/><path class="cls-1" d="M224.59,212.8a12.14,12.14,0,0,0,2.81,7.7,8.55,8.55,0,0,0,6.71,2.86,9.46,9.46,0,0,0,4.89-1.25,5.71,5.71,0,0,0,2.73-3.51h11.6a18.7,18.7,0,0,1-6.93,10.13,19.59,19.59,0,0,1-11.77,3.55q-21.28,0-21.29-23.2a27.15,27.15,0,0,1,1.38-8.92,19.31,19.31,0,0,1,4-6.84A17.45,17.45,0,0,1,225.2,189a23.47,23.47,0,0,1,8.74-1.51q9.87,0,14.93,6.32t5.06,19Zm17.75-7.1a11.86,11.86,0,0,0-.83-4.11,8.71,8.71,0,0,0-1.94-2.94,7.7,7.7,0,0,0-2.78-1.73,9.19,9.19,0,0,0-3.2-.57,8,8,0,0,0-5.84,2.47,10.51,10.51,0,0,0-2.81,6.88Z" transform="translate(-85.63 -110.23)"/><rect class="cls-1" y="78.34" width="11.25" height="11.25"/><rect class="cls-1" y="109.67" width="11.25" height="11.25"/></svg>